<svg id="Layer_1" data-name="Layer 1" xmlns="http://www.w3.org/2000/svg" viewBox="0 0 477.04 95.34"><defs><style>.cls-1{isolation:isolate;}.cls-2{fill:#2684ff;}.cls-3{fill:#f8f9fa;}</style></defs><title>descarga 2</title><g class="cls-1"><path class="cls-2" d="M104.43,41V6.66H119a25,25,0,0,1,8,.93,7.9,7.9,0,0,1,4,3.29,9.9,9.9,0,0,1,1.5,5.41,9.17,9.17,0,0,1-2.27,6.39,10.92,10.92,0,0,1-6.8,3.18,16.19,16.19,0,0,1,3.71,2.88,39.16,39.16,0,0,1,3.95,5.58l4.2,6.7H127l-5-7.48a48.5,48.5,0,0,0-3.66-5.05,5.32,5.32,0,0,0-2.09-1.43,11.43,11.43,0,0,0-3.49-.39h-1.41V41h-6.94Zm6.94-19.83h5.13a26.51,26.51,0,0,0,6.23-.42,3.74,3.74,0,0,0,1.95-1.45,4.47,4.47,0,0,0,.7-2.58,4.12,4.12,0,0,0-.93-2.8,4.25,4.25,0,0,0-2.61-1.35q-0.84-.12-5.06-0.12h-5.41v8.72Z" transform="translate(0 -5.52)"/><path class="cls-2" d="M139.07,41V6.66h25.48v5.81H146v7.62h17.25v5.79H146v9.35h19.2V41H139.07Z" transform="translate(0 -5.52)"/><path class="cls-2" d="M171.13,41V6.66h23.55v5.81H178.07v8.13h14.34v5.81H178.07V41h-6.94Z" transform="translate(0 -5.52)"/><path class="cls-2" d="M200.19,41V6.66h6.94V41h-6.94Z" transform="translate(0 -5.52)"/><path class="cls-2" d="M213.81,41V6.66h6.75l14.06,22.95V6.66h6.45V41h-7L220.25,18.61V41h-6.45Z" transform="translate(0 -5.52)"/><path class="cls-2" d="M248.4,41V6.66h25.48v5.81H255.34v7.62h17.25v5.79H255.34v9.35h19.2V41H248.4Z" transform="translate(0 -5.52)"/><path class="cls-2" d="M280.39,6.66h12.68a24.76,24.76,0,0,1,6.54.66,11.49,11.49,0,0,1,5.18,3.16A15,15,0,0,1,308.07,16a25.36,25.36,0,0,1,1.13,8.12,22.58,22.58,0,0,1-1.05,7.31,15.15,15.15,0,0,1-3.68,6.07,12.2,12.2,0,0,1-4.87,2.74,21,21,0,0,1-6.14.73H280.39V6.66Zm6.94,5.81V35.23h5.18a18.9,18.9,0,0,0,4.2-.33,6.4,6.4,0,0,0,2.8-1.43,7.27,7.27,0,0,0,1.82-3.32,22.41,22.41,0,0,0,.7-6.29,20.53,20.53,0,0,0-.7-6.12,7.86,7.86,0,0,0-2-3.33,6.6,6.6,0,0,0-3.21-1.62,31.45,31.45,0,0,0-5.7-.33h-3.12Z" transform="translate(0 -5.52)"/></g><g class="cls-1"><path class="cls-3" d="M104,50.63h19.74a57.11,57.11,0,0,1,8.74.49,12.86,12.86,0,0,1,5.15,2,12.68,12.68,0,0,1,3.79,4.13,11.18,11.18,0,0,1,1.52,5.78A11.71,11.71,0,0,1,136,73.77a13,13,0,0,1,6.94,4.48,11.89,11.89,0,0,1,2.43,7.45,14.69,14.69,0,0,1-1.57,6.55,13.21,13.21,0,0,1-4.28,5.09,14.14,14.14,0,0,1-6.69,2.34q-2.49.27-12,.34H104V50.63Zm10,8.22V70.27h6.54q5.83,0,7.24-.17a6.59,6.59,0,0,0,4-1.77,5.22,5.22,0,0,0,1.47-3.86,5.42,5.42,0,0,0-1.26-3.72A5.72,5.72,0,0,0,128.19,59q-1.48-.17-8.52-0.17h-5.73Zm0,19.64V91.7h9.23a45,45,0,0,0,6.84-.3,6.18,6.18,0,0,0,3.62-2,6.07,6.07,0,0,0,1.4-4.2,6.45,6.45,0,0,0-1.08-3.77,6.1,6.1,0,0,0-3.12-2.26q-2-.71-8.84-0.71h-8.05Z" transform="translate(0 -5.52)"/><path class="cls-3" d="M153.46,100V50.63h10V100h-10Z" transform="translate(0 -5.52)"/><path class="cls-3" d="M184,100V59H169.39V50.63h39.25V59H194v41H184Z" transform="translate(0 -5.52)"/><path class="cls-3" d="M215.11,50.63h19.74a57.11,57.11,0,0,1,8.74.49,12.86,12.86,0,0,1,5.15,2,12.68,12.68,0,0,1,3.79,4.13,11.18,11.18,0,0,1,1.52,5.78,11.71,11.71,0,0,1-6.94,10.71,13,13,0,0,1,6.94,4.48,11.89,11.89,0,0,1,2.43,7.45,14.69,14.69,0,0,1-1.57,6.55,13.2,13.2,0,0,1-4.28,5.09A14.13,14.13,0,0,1,244,99.68q-2.49.27-12,.34H215.11V50.63Zm10,8.22V70.27h6.54q5.83,0,7.24-.17a6.59,6.59,0,0,0,4-1.77,5.22,5.22,0,0,0,1.47-3.86,5.42,5.42,0,0,0-1.26-3.72A5.72,5.72,0,0,0,239.34,59q-1.48-.17-8.52-0.17h-5.73Zm0,19.64V91.7h9.23a45,45,0,0,0,6.84-.3,6.17,6.17,0,0,0,3.62-2,6.07,6.07,0,0,0,1.4-4.2,6.45,6.45,0,0,0-1.08-3.77A6.1,6.1,0,0,0,242,79.2q-2-.71-8.84-0.71h-8.05Z" transform="translate(0 -5.52)"/><path class="cls-3" d="M264.84,50.63h10V77.38a55.29,55.29,0,0,0,.37,8.25,8,8,0,0,0,3,4.87,10.62,10.62,0,0,0,6.59,1.84q4.25,0,6.4-1.73a6.86,6.86,0,0,0,2.59-4.26,55.58,55.58,0,0,0,.44-8.39V50.63h10V76.57a66.65,66.65,0,0,1-.81,12.57,13.9,13.9,0,0,1-3,6.2,15.07,15.07,0,0,1-5.81,4,25.31,25.31,0,0,1-9.5,1.5q-7.08,0-10.73-1.63A15.33,15.33,0,0,1,268.61,95a13.6,13.6,0,0,1-2.8-5.47,59.91,59.91,0,0,1-1-12.53V50.63Z" transform="translate(0 -5.52)"/><path class="cls-3" d="M346.34,81.86L356,84.93q-2.22,8.09-7.4,12t-13.12,3.92a21.25,21.25,0,0,1-16.17-6.72Q313,87.42,313,75.76q0-12.33,6.37-19.15t16.75-6.82q9.06,0,14.72,5.36a19.48,19.48,0,0,1,5.05,9.1L346,66.6a10.2,10.2,0,0,0-10.41-8.29,11.24,11.24,0,0,0-8.91,3.94q-3.42,3.94-3.42,12.77,0,9.37,3.37,13.34a10.94,10.94,0,0,0,8.76,4,10,10,0,0,0,6.84-2.53Q345.09,87.29,346.34,81.86Z" transform="translate(0 -5.52)"/><path class="cls-3" d="M364.7,100V50.63h10V72.56l20.15-21.93h13.41l-18.6,19.24L409.24,100h-12.9L382.76,76.84l-8.09,8.25V100h-10Z" transform="translate(0 -5.52)"/></g><g class="cls-1"><path class="cls-3" d="M400.35,100V50.63H437V59H410.32V69.93h24.8v8.32h-24.8V91.7h27.59V100H400.35Z" transform="translate(0 -5.52)"/></g><g class="cls-1"><path class="cls-3" d="M452.45,100V59H437.79V50.63H477V59H462.42v41h-10Z" transform="translate(0 -5.52)"/></g><path class="cls-3" d="M0,5.52L16.34,100H68.55L86.8,5.52H0ZM58.46,85H27.19L17.41,20.5h52Z" transform="translate(0 -5.52)"/></svg>
